<svg width="24" height="25" viewBox="0 0 24 25" fill="none" xmlns="http://www.w3.org/2000/svg">
<path d="M13.121 6.41791C12.9335 6.60544 12.8282 6.85974 12.8282 7.12491C12.8282 7.39007 12.9335 7.64438 13.121 7.83191L16.413 11.1249L6 11.1319C5.73478 11.1319 5.48043 11.2373 5.29289 11.4248C5.10536 11.6123 5 11.8667 5 12.1319C5 12.3971 5.10536 12.6515 5.29289 12.839C5.48043 13.0266 5.73478 13.1319 6 13.1319L16.414 13.1249L13.121 16.4179C13.0255 16.5102 12.9493 16.6205 12.8969 16.7425C12.8445 16.8645 12.8169 16.9957 12.8157 17.1285C12.8146 17.2613 12.8399 17.393 12.8902 17.5159C12.9405 17.6388 13.0147 17.7504 13.1086 17.8443C13.2025 17.9382 13.3141 18.0125 13.437 18.0627C13.5599 18.113 13.6916 18.1383 13.8244 18.1372C13.9572 18.136 14.0884 18.1084 14.2104 18.056C14.3324 18.0036 14.4428 17.9274 14.535 17.8319L18.121 14.2469C18.3996 13.9683 18.6207 13.6376 18.7715 13.2736C18.9222 12.9096 18.9999 12.5194 18.9999 12.1254C18.9999 11.7314 18.9222 11.3413 18.7715 10.9772C18.6207 10.6132 18.3996 10.2825 18.121 10.0039L14.535 6.41791C14.3475 6.23044 14.0932 6.12512 13.828 6.12512C13.5628 6.12512 13.3085 6.23044 13.121 6.41791Z" fill="#595959"/>
</svg>
